<svg width="978" height="763" viewBox="0 0 978 763" fill="none" xmlns="http://www.w3.org/2000/svg">
<g clip-path="url(#clip0_1_12)">
<rect width="977" height="763" transform="translate(0.0933838)" fill="white"/>
<path d="M643.045 469.861C641.273 468.636 638.914 468.684 637.193 469.981L527.879 552.355C525.673 554.017 525.233 557.152 526.895 559.358L572.275 619.579C573.94 621.788 577.082 622.226 579.287 620.555L708.219 522.882C710.932 520.826 710.843 516.719 708.042 514.783L643.045 469.861Z" fill="#09A2A2"/>
<path d="M490.885 582.847L396.385 652.347V510.966L490.885 582.847Z" fill="#09A2A0"/>
<path d="M490.885 582.533L580.885 651.847V510.847L490.885 582.533Z" fill="#A3DFD9"/>
<path d="M336.408 470.252C338.18 469.027 340.539 469.075 342.26 470.372L451.574 552.746C453.78 554.408 454.22 557.543 452.558 559.748L407.178 619.97C405.513 622.179 402.371 622.617 400.166 620.946L271.234 523.273C268.521 521.217 268.61 517.11 271.411 515.174L336.408 470.252Z" fill="#09A2A2"/>
<path d="M457.885 551.847C457.885 574.49 443.559 592.847 425.885 592.847C408.212 592.847 393.885 574.49 393.885 551.847C393.885 529.203 408.212 510.847 425.885 510.847C443.559 510.847 457.885 529.203 457.885 551.847Z" fill="white"/>
<path d="M708.198 514.668C711 516.605 711.088 520.715 708.371 522.769L642.946 572.251C639.644 574.748 634.912 572.38 634.93 568.241L635.344 473.829C635.362 469.808 639.878 467.452 643.187 469.738L708.198 514.668Z" fill="#004847"/>
<path d="M578.161 130.988C579.75 129.788 579.75 127.4 578.161 126.199L488.639 58.6113C486.663 57.1191 483.832 58.529 483.832 61.0055V196.182C483.832 198.658 486.663 200.068 488.639 198.576L578.161 130.988Z" fill="#007B7A"/>
<path d="M311.954 326.526C314.076 327.922 316.97 327.763 319.136 326.131L456.717 222.456C459.492 220.364 460.167 216.578 458.224 213.999L405.157 143.577C403.21 140.994 399.375 140.603 396.6 142.705L234.307 265.605C230.892 268.192 230.825 273.124 234.176 275.33L311.954 326.526Z" fill="url(#paint0_linear_1_12)"/>
<path d="M746.161 256.988C747.75 255.788 747.75 253.4 746.161 252.199L656.639 184.611C654.663 183.119 651.832 184.529 651.832 187.006V322.182C651.832 324.658 654.663 326.068 656.639 324.576L746.161 256.988Z" fill="#A3DFD9"/>
<path d="M395.503 126.199C393.913 127.4 393.913 129.788 395.503 130.988L485.024 198.576C487.001 200.068 489.832 198.658 489.832 196.182V61.0055C489.832 58.5289 487.001 57.119 485.024 58.6112L395.503 126.199Z" fill="#A3DFD9"/>
<path d="M563.503 252.199C561.913 253.4 561.913 255.788 563.503 256.988L653.024 324.576C655.001 326.068 657.832 324.658 657.832 322.182V187.006C657.832 184.529 655.001 183.119 653.024 184.611L563.503 252.199Z" fill="#49C0B4"/>
<path d="M489.332 197.594L394.832 128.094V269.474L489.332 197.594Z" fill="#007B7A"/>
<path d="M489.332 197.907L579.332 128.594V269.594L489.332 197.907Z" fill="#49C0B4"/>
<rect width="977" height="763" fill="white" fill-opacity="0.6"/>
<path d="M579.85 651.452C581.44 652.653 581.44 655.041 579.85 656.241L490.329 723.829C488.352 725.321 485.521 723.911 485.521 721.435V586.258C485.521 583.782 488.352 582.372 490.329 583.864L579.85 651.452Z" fill="#004847"/>
<path d="M397.192 656.241C395.603 655.041 395.603 652.653 397.192 651.452L486.714 583.864C488.69 582.372 491.521 583.782 491.521 586.258V721.435C491.521 723.911 488.69 725.321 486.714 723.829L397.192 656.241Z" fill="#A3DFD9"/>
<path d="M221.925 444C219.431 439.807 216.541 435.103 213.255 429.89C210.081 424.677 206.625 419.293 202.885 413.74C199.145 408.073 195.235 402.35 191.155 396.57C187.188 390.79 183.221 385.237 179.255 379.91C175.288 374.47 171.435 369.37 167.695 364.61C163.955 359.85 160.498 355.657 157.325 352.03V444H141.175V326.19H154.265C159.591 331.857 165.258 338.487 171.265 346.08C177.385 353.56 183.391 361.323 189.285 369.37C195.291 377.303 200.901 385.123 206.115 392.83C211.441 400.537 215.918 407.393 219.545 413.4V326.19H235.695V444H221.925ZM342.716 441.45C339.09 442.357 334.273 443.32 328.266 444.34C322.373 445.36 315.516 445.87 307.696 445.87C300.896 445.87 295.173 444.907 290.526 442.98C285.88 440.94 282.14 438.107 279.306 434.48C276.473 430.853 274.433 426.603 273.186 421.73C271.94 416.743 271.316 411.247 271.316 405.24V355.6H287.126V401.84C287.126 412.607 288.826 420.313 292.226 424.96C295.626 429.607 301.35 431.93 309.396 431.93C311.096 431.93 312.853 431.873 314.666 431.76C316.48 431.647 318.18 431.533 319.766 431.42C321.353 431.193 322.77 431.023 324.016 430.91C325.376 430.683 326.34 430.457 326.906 430.23V355.6H342.716V441.45ZM447.474 355.6C443.054 372.147 437.84 388.013 431.834 403.2C425.94 418.387 420.217 431.987 414.664 444H400.384C394.83 431.987 389.05 418.387 383.044 403.2C377.15 388.013 371.994 372.147 367.574 355.6H384.574C385.934 361.153 387.52 367.103 389.334 373.45C391.26 379.683 393.244 385.917 395.284 392.15C397.437 398.27 399.59 404.22 401.744 410C403.897 415.78 405.937 420.937 407.864 425.47C409.79 420.937 411.83 415.78 413.984 410C416.137 404.22 418.234 398.27 420.274 392.15C422.427 385.917 424.41 379.683 426.224 373.45C428.15 367.103 429.794 361.153 431.154 355.6H447.474ZM464.904 460.49C466.15 461.057 467.737 461.567 469.664 462.02C471.704 462.587 473.687 462.87 475.614 462.87C481.847 462.87 486.72 461.453 490.234 458.62C493.747 455.9 496.92 451.423 499.754 445.19C492.614 431.59 485.927 417.197 479.694 402.01C473.574 386.71 468.474 371.24 464.394 355.6H481.394C482.64 360.7 484.114 366.197 485.814 372.09C487.627 377.983 489.61 384.047 491.764 390.28C493.917 396.513 496.24 402.747 498.734 408.98C501.227 415.213 503.834 421.22 506.554 427C510.86 415.1 514.6 403.313 517.774 391.64C520.947 379.967 523.95 367.953 526.784 355.6H543.104C539.024 372.26 534.49 388.297 529.504 403.71C524.517 419.01 519.134 433.347 513.354 446.72C511.087 451.82 508.707 456.183 506.214 459.81C503.834 463.55 501.17 466.61 498.224 468.99C495.277 471.37 491.934 473.127 488.194 474.26C484.567 475.393 480.43 475.96 475.784 475.96C474.537 475.96 473.234 475.847 471.874 475.62C470.514 475.507 469.154 475.28 467.794 474.94C466.547 474.713 465.357 474.43 464.224 474.09C463.204 473.75 462.467 473.467 462.014 473.24L464.904 460.49ZM568.276 358.15C571.902 357.243 576.719 356.28 582.726 355.26C588.732 354.24 595.646 353.73 603.466 353.73C610.492 353.73 616.329 354.75 620.976 356.79C625.622 358.717 629.306 361.493 632.026 365.12C634.859 368.633 636.842 372.883 637.976 377.87C639.109 382.857 639.676 388.353 639.676 394.36V444H623.866V397.76C623.866 392.32 623.469 387.673 622.676 383.82C621.996 379.967 620.806 376.85 619.106 374.47C617.406 372.09 615.139 370.39 612.306 369.37C609.472 368.237 605.959 367.67 601.766 367.67C600.066 367.67 598.309 367.727 596.496 367.84C594.682 367.953 592.926 368.123 591.226 368.35C589.639 368.463 588.166 368.633 586.806 368.86C585.559 369.087 584.652 369.257 584.086 369.37V444H568.276V358.15ZM693.093 434.82C693.093 437.88 692.073 440.543 690.033 442.81C687.993 445.077 685.216 446.21 681.703 446.21C678.19 446.21 675.413 445.077 673.373 442.81C671.333 440.543 670.313 437.88 670.313 434.82C670.313 431.76 671.333 429.097 673.373 426.83C675.413 424.563 678.19 423.43 681.703 423.43C685.216 423.43 687.993 424.563 690.033 426.83C692.073 429.097 693.093 431.76 693.093 434.82ZM754.649 432.61C758.389 432.61 761.676 432.553 764.509 432.44C767.456 432.213 769.892 431.873 771.819 431.42V405.07C770.686 404.503 768.816 404.05 766.209 403.71C763.716 403.257 760.656 403.03 757.029 403.03C754.649 403.03 752.099 403.2 749.379 403.54C746.772 403.88 744.336 404.617 742.069 405.75C739.916 406.77 738.102 408.243 736.629 410.17C735.156 411.983 734.419 414.42 734.419 417.48C734.419 423.147 736.232 427.113 739.859 429.38C743.486 431.533 748.416 432.61 754.649 432.61ZM753.289 353.39C759.636 353.39 764.962 354.24 769.269 355.94C773.689 357.527 777.202 359.85 779.809 362.91C782.529 365.857 784.456 369.427 785.589 373.62C786.722 377.7 787.289 382.233 787.289 387.22V442.47C785.929 442.697 784.002 443.037 781.509 443.49C779.129 443.83 776.409 444.17 773.349 444.51C770.289 444.85 766.946 445.133 763.319 445.36C759.806 445.7 756.292 445.87 752.779 445.87C747.792 445.87 743.202 445.36 739.009 444.34C734.816 443.32 731.189 441.733 728.129 439.58C725.069 437.313 722.689 434.367 720.989 430.74C719.289 427.113 718.439 422.75 718.439 417.65C718.439 412.777 719.402 408.583 721.329 405.07C723.369 401.557 726.089 398.723 729.489 396.57C732.889 394.417 736.856 392.83 741.389 391.81C745.922 390.79 750.682 390.28 755.669 390.28C757.256 390.28 758.899 390.393 760.599 390.62C762.299 390.733 763.886 390.96 765.359 391.3C766.946 391.527 768.306 391.753 769.439 391.98C770.572 392.207 771.366 392.377 771.819 392.49V388.07C771.819 385.463 771.536 382.913 770.969 380.42C770.402 377.813 769.382 375.547 767.909 373.62C766.436 371.58 764.396 369.993 761.789 368.86C759.296 367.613 756.009 366.99 751.929 366.99C746.716 366.99 742.126 367.387 738.159 368.18C734.306 368.86 731.416 369.597 729.489 370.39L727.619 357.3C729.659 356.393 733.059 355.543 737.819 354.75C742.579 353.843 747.736 353.39 753.289 353.39ZM837.857 444H822.047V355.6H837.857V444ZM829.867 339.62C827.034 339.62 824.597 338.713 822.557 336.9C820.631 334.973 819.667 332.423 819.667 329.25C819.667 326.077 820.631 323.583 822.557 321.77C824.597 319.843 827.034 318.88 829.867 318.88C832.701 318.88 835.081 319.843 837.007 321.77C839.047 323.583 840.067 326.077 840.067 329.25C840.067 332.423 839.047 334.973 837.007 336.9C835.081 338.713 832.701 339.62 829.867 339.62Z" fill="black"/>
<line y1="-1.5" x2="450.154" y2="-1.5" transform="matrix(0.999659 0.0261298 -0.0147071 0.999892 264 391)" stroke="white" stroke-width="3"/>
<line y1="-1.5" x2="450.154" y2="-1.5" transform="matrix(0.999659 0.0261298 -0.0147071 0.999892 264 397)" stroke="white" stroke-width="3"/>
</g>
<defs>
<linearGradient id="paint0_linear_1_12" x1="263.767" y1="319.146" x2="294.109" y2="146.899" gradientUnits="userSpaceOnUse">
<stop stop-color="#FCCA90"/>
<stop offset="1" stop-color="#FF9F73"/>
</linearGradient>
<clipPath id="clip0_1_12">
<rect width="977" height="763" fill="white" transform="translate(0.0933838)"/>
</clipPath>
</defs>
</svg>
