<svg width="644" height="429" viewBox="0 0 644 429" fill="none" xmlns="http://www.w3.org/2000/svg">
<g clip-path="url(#clip0_5_2)">
<rect width="644" height="429" fill="white"/>
<path d="M347.067 73.9879C348.657 72.7876 348.657 70.3997 347.067 69.1994L257.546 1.6113C255.57 0.119057 252.739 1.52899 252.739 4.00554V139.182C252.739 141.658 255.57 143.068 257.546 141.576L347.067 73.9879Z" fill="#007B7A"/>
<path d="M80.8612 269.526C82.9825 270.922 85.8764 270.763 88.0424 269.131L225.624 165.456C228.399 163.364 229.074 159.578 227.131 156.999L174.064 86.5772C172.117 83.9936 168.282 83.6026 165.507 85.7045L3.21406 208.605C-0.201639 211.192 -0.268011 216.124 3.0832 218.33L80.8612 269.526Z" fill="url(#paint0_linear_5_2)"/>
<path d="M515.067 199.988C516.657 198.788 516.657 196.4 515.067 195.199L425.546 127.611C423.57 126.119 420.739 127.529 420.739 130.006V265.182C420.739 267.658 423.57 269.068 425.546 267.576L515.067 199.988Z" fill="#A3DFD9"/>
<path d="M164.41 69.1994C162.82 70.3997 162.82 72.7876 164.41 73.9879L253.931 141.576C255.908 143.068 258.739 141.658 258.739 139.182V4.00547C258.739 1.52893 255.908 0.118979 253.931 1.61122L164.41 69.1994Z" fill="#A3DFD9"/>
<path d="M332.41 195.199C330.82 196.4 330.82 198.788 332.41 199.988L421.931 267.576C423.907 269.068 426.738 267.658 426.738 265.182V130.006C426.738 127.529 423.907 126.119 421.931 127.611L332.41 195.199Z" fill="#49C0B4"/>
<path d="M258.239 140.594L163.739 71.0937V212.474L258.239 140.594Z" fill="#007B7A"/>
<path d="M258.239 140.907L348.239 71.5937V212.594L258.239 140.907Z" fill="#49C0B4"/>
<path d="M573.762 173.437C571.968 172.243 569.198 172.11 567.5 173.437L460.5 258.5C458.324 260.2 457.3 263.324 459 265.5L505.615 324.367C507.318 326.547 510.468 326.93 512.644 325.221L639.851 225.312C642.528 223.21 642.367 219.105 639.533 217.218L573.762 173.437Z" fill="#09A2A2"/>
<path d="M423.792 287.847L329.292 357.347V215.966L423.792 287.847Z" fill="#09A2A0"/>
<path d="M423.792 287.533L513.792 356.847V215.847L423.792 287.533Z" fill="#A3DFD9"/>
<path d="M269.315 175.252C271.087 174.027 273.446 174.075 275.166 175.372L384.481 257.746C386.686 259.408 387.127 262.543 385.465 264.748L340.085 324.97C338.42 327.179 335.278 327.617 333.073 325.946L204.141 228.273C201.428 226.217 201.517 222.11 204.318 220.174L269.315 175.252Z" fill="#09A2A2"/>
<path d="M640.105 217.668C642.907 219.605 642.995 223.715 640.278 225.769L575.094 276.5C571.792 278.997 566.819 275.38 566.837 271.241L565.5 177C565.518 172.979 570.192 171.214 573.5 173.5L640.105 217.668Z" fill="#004847"/>
<path d="M390.792 256.847C390.792 279.49 376.466 297.847 358.792 297.847C341.119 297.847 326.792 279.49 326.792 256.847C326.792 234.203 341.119 215.847 358.792 215.847C376.466 215.847 390.792 234.203 390.792 256.847Z" fill="white"/>
<path d="M513.757 355.452C515.347 356.653 515.347 359.041 513.757 360.241L424.236 427.829C422.259 429.321 419.428 427.911 419.428 425.435V290.258C419.428 287.782 422.259 286.372 424.236 287.864L513.757 355.452Z" fill="#FF9F73"/>
<path d="M331.099 360.241C329.509 359.041 329.509 356.653 331.099 355.452L420.62 287.864C422.597 286.372 425.428 287.782 425.428 290.258V425.435C425.428 427.911 422.597 429.321 420.62 427.829L331.099 360.241Z" fill="#004847"/>
</g>
<defs>
<linearGradient id="paint0_linear_5_2" x1="32.6737" y1="262.146" x2="63.0158" y2="89.8987" gradientUnits="userSpaceOnUse">
<stop stop-color="#FCCA90"/>
<stop offset="1" stop-color="#FF9F73"/>
</linearGradient>
<clipPath id="clip0_5_2">
<rect width="644" height="429" fill="white"/>
</clipPath>
</defs>
</svg>
