<svg width="2033" height="429" viewBox="0 0 2033 429" fill="none" xmlns="http://www.w3.org/2000/svg">
<g clip-path="url(#clip0_5_2)">
<rect width="2033" height="429" fill="white"/>
<path d="M347.067 73.9879C348.657 72.7876 348.657 70.3997 347.067 69.1994L257.546 1.6113C255.57 0.119057 252.738 1.52899 252.738 4.00554V139.182C252.738 141.658 255.57 143.068 257.546 141.576L347.067 73.9879Z" fill="#007B7A"/>
<path d="M80.8612 269.526C82.9825 270.922 85.8764 270.763 88.0424 269.131L225.624 165.456C228.399 163.364 229.074 159.578 227.131 156.999L174.064 86.5772C172.117 83.9936 168.282 83.6026 165.507 85.7045L3.21406 208.605C-0.201639 211.192 -0.268011 216.124 3.0832 218.33L80.8612 269.526Z" fill="url(#paint0_linear_5_2)"/>
<path d="M515.067 199.988C516.657 198.788 516.657 196.4 515.067 195.199L425.546 127.611C423.57 126.119 420.739 127.529 420.739 130.006V265.182C420.739 267.658 423.57 269.068 425.546 267.576L515.067 199.988Z" fill="#A3DFD9"/>
<path d="M164.41 69.1994C162.82 70.3997 162.82 72.7876 164.41 73.9879L253.931 141.576C255.908 143.068 258.739 141.658 258.739 139.182V4.00547C258.739 1.52893 255.908 0.118979 253.931 1.61122L164.41 69.1994Z" fill="#A3DFD9"/>
<path d="M332.41 195.199C330.82 196.4 330.82 198.788 332.41 199.988L421.931 267.576C423.907 269.068 426.738 267.658 426.738 265.182V130.006C426.738 127.529 423.907 126.119 421.931 127.611L332.41 195.199Z" fill="#49C0B4"/>
<path d="M258.239 140.594L163.739 71.0937V212.474L258.239 140.594Z" fill="#007B7A"/>
<path d="M258.239 140.907L348.239 71.5937V212.594L258.239 140.907Z" fill="#49C0B4"/>
<path d="M573.762 173.437C571.968 172.243 569.198 172.11 567.5 173.437L460.5 258.5C458.324 260.2 457.3 263.324 459 265.5L505.615 324.367C507.318 326.547 510.468 326.93 512.644 325.221L639.851 225.312C642.528 223.21 642.367 219.105 639.533 217.218L573.762 173.437Z" fill="#09A2A2"/>
<path d="M423.792 287.847L329.292 357.347V215.966L423.792 287.847Z" fill="#09A2A0"/>
<path d="M423.792 287.533L513.792 356.847V215.847L423.792 287.533Z" fill="#A3DFD9"/>
<path d="M269.315 175.252C271.087 174.027 273.446 174.075 275.166 175.372L384.481 257.746C386.686 259.408 387.127 262.543 385.465 264.748L340.085 324.97C338.42 327.179 335.278 327.617 333.073 325.946L204.141 228.273C201.428 226.217 201.517 222.11 204.318 220.174L269.315 175.252Z" fill="#09A2A2"/>
<path d="M640.105 217.668C642.907 219.605 642.995 223.715 640.278 225.769L575.094 276.5C571.792 278.997 566.819 275.38 566.837 271.241L565.5 177C565.518 172.979 570.192 171.214 573.5 173.5L640.105 217.668Z" fill="#004847"/>
<path d="M390.792 256.847C390.792 279.49 376.466 297.847 358.792 297.847C341.119 297.847 326.792 279.49 326.792 256.847C326.792 234.203 341.119 215.847 358.792 215.847C376.466 215.847 390.792 234.203 390.792 256.847Z" fill="white"/>
<path d="M513.757 355.452C515.347 356.653 515.347 359.041 513.757 360.241L424.236 427.829C422.259 429.321 419.428 427.911 419.428 425.435V290.258C419.428 287.782 422.259 286.372 424.236 287.864L513.757 355.452Z" fill="#FF9F73"/>
<path d="M331.099 360.241C329.509 359.041 329.509 356.653 331.099 355.452L420.62 287.864C422.597 286.372 425.428 287.782 425.428 290.258V425.435C425.428 427.911 422.597 429.321 420.62 427.829L331.099 360.241Z" fill="#004847"/>
<path d="M879.262 316C872.462 304.6 864.862 292.4 856.462 279.4C848.062 266.2 839.362 253 830.362 239.8C821.362 226.4 812.162 213.5 802.762 201.1C793.562 188.5 784.762 177.2 776.362 167.2V316H739.162V108.1H770.062C778.062 116.5 786.662 126.5 795.862 138.1C805.062 149.5 814.262 161.4 823.462 173.8C832.862 186.2 841.862 198.7 850.462 211.3C859.262 223.7 867.062 235.3 873.862 246.1V108.1H911.362V316H879.262ZM1103.13 311.2C1096.13 313 1087.03 314.8 1075.83 316.6C1064.63 318.6 1052.33 319.6 1038.93 319.6C1026.33 319.6 1015.73 317.8 1007.13 314.2C998.732 310.6 991.932 305.6 986.732 299.2C981.732 292.8 978.132 285.2 975.932 276.4C973.732 267.4 972.632 257.6 972.632 247V159.1H1008.93V241.3C1008.93 258.1 1011.33 270.1 1016.13 277.3C1021.13 284.5 1029.73 288.1 1041.93 288.1C1046.33 288.1 1050.93 287.9 1055.73 287.5C1060.73 287.1 1064.43 286.6 1066.83 286V159.1H1103.13V311.2ZM1204.53 316C1194.53 295.4 1184.23 271.8 1173.63 245.2C1163.23 218.4 1153.73 189.7 1145.13 159.1H1183.83C1186.03 167.9 1188.53 177.4 1191.33 187.6C1194.33 197.6 1197.43 207.7 1200.63 217.9C1204.03 227.9 1207.43 237.7 1210.83 247.3C1214.43 256.7 1217.73 265.2 1220.73 272.8C1223.73 265.2 1226.93 256.7 1230.33 247.3C1233.73 237.7 1237.03 227.9 1240.23 217.9C1243.63 207.7 1246.83 197.6 1249.83 187.6C1252.83 177.4 1255.43 167.9 1257.63 159.1H1295.13C1286.53 189.7 1276.93 218.4 1266.33 245.2C1255.93 271.8 1245.73 295.4 1235.73 316H1204.53ZM1470.03 159.1C1453.83 218.7 1435.03 272.7 1413.63 321.1C1409.63 330.1 1405.53 337.8 1401.33 344.2C1397.13 350.6 1392.43 355.9 1387.23 360.1C1382.03 364.3 1376.23 367.3 1369.83 369.1C1363.43 371.1 1356.03 372.1 1347.63 372.1C1342.03 372.1 1336.43 371.5 1330.83 370.3C1325.43 369.1 1321.33 367.8 1318.53 366.4L1325.13 337.3C1332.33 340.1 1339.43 341.5 1346.43 341.5C1355.83 341.5 1363.13 339.2 1368.33 334.6C1373.73 330.2 1378.43 323.3 1382.43 313.9C1371.03 291.9 1360.03 267.9 1349.43 241.9C1339.03 215.9 1329.73 188.3 1321.53 159.1H1360.23C1362.23 167.5 1364.63 176.6 1367.43 186.4C1370.43 196.2 1373.63 206.2 1377.03 216.4C1380.43 226.4 1384.03 236.4 1387.83 246.4C1391.63 256.4 1395.43 265.7 1399.23 274.3C1405.63 256.5 1411.63 237.6 1417.23 217.6C1422.83 197.4 1427.93 177.9 1432.53 159.1H1470.03ZM1512.5 164.2C1519.5 162.2 1528.6 160.3 1539.8 158.5C1551 156.7 1563.4 155.8 1577 155.8C1589.8 155.8 1600.5 157.6 1609.1 161.2C1617.7 164.6 1624.5 169.5 1629.5 175.9C1634.7 182.1 1638.3 189.7 1640.3 198.7C1642.5 207.5 1643.6 217.2 1643.6 227.8V316H1607.3V233.5C1607.3 225.1 1606.7 218 1605.5 212.2C1604.5 206.2 1602.7 201.4 1600.1 197.8C1597.7 194 1594.3 191.3 1589.9 189.7C1585.7 187.9 1580.5 187 1574.3 187C1569.7 187 1564.9 187.3 1559.9 187.9C1554.9 188.5 1551.2 189 1548.8 189.4V316H1512.5V164.2ZM1852.87 290.5C1864.07 290.5 1872.57 289.9 1878.37 288.7V248.5C1876.37 247.9 1873.47 247.3 1869.67 246.7C1865.87 246.1 1861.67 245.8 1857.07 245.8C1853.07 245.8 1848.97 246.1 1844.77 246.7C1840.77 247.3 1837.07 248.4 1833.67 250C1830.47 251.6 1827.87 253.9 1825.87 256.9C1823.87 259.7 1822.87 263.3 1822.87 267.7C1822.87 276.3 1825.57 282.3 1830.97 285.7C1836.37 288.9 1843.67 290.5 1852.87 290.5ZM1849.87 155.2C1861.87 155.2 1871.97 156.7 1880.17 159.7C1888.37 162.7 1894.87 166.9 1899.67 172.3C1904.67 177.7 1908.17 184.3 1910.17 192.1C1912.37 199.7 1913.47 208.1 1913.47 217.3V312.4C1907.87 313.6 1899.37 315 1887.97 316.6C1876.77 318.4 1864.07 319.3 1849.87 319.3C1840.47 319.3 1831.87 318.4 1824.07 316.6C1816.27 314.8 1809.57 311.9 1803.97 307.9C1798.57 303.9 1794.27 298.7 1791.07 292.3C1788.07 285.9 1786.57 278 1786.57 268.6C1786.57 259.6 1788.27 252 1791.67 245.8C1795.27 239.6 1800.07 234.6 1806.07 230.8C1812.07 226.8 1818.97 224 1826.77 222.4C1834.77 220.6 1843.07 219.7 1851.67 219.7C1855.67 219.7 1859.87 220 1864.27 220.6C1868.67 221 1873.37 221.8 1878.37 223V217C1878.37 212.8 1877.87 208.8 1876.87 205C1875.87 201.2 1874.07 197.9 1871.47 195.1C1869.07 192.1 1865.77 189.8 1861.57 188.2C1857.57 186.6 1852.47 185.8 1846.27 185.8C1837.87 185.8 1830.17 186.4 1823.17 187.6C1816.17 188.8 1810.47 190.2 1806.07 191.8L1801.57 162.4C1806.17 160.8 1812.87 159.2 1821.67 157.6C1830.47 156 1839.87 155.2 1849.87 155.2ZM2009.53 316H1973.23V159.1H2009.53V316ZM2013.43 113.2C2013.43 120 2011.23 125.4 2006.83 129.4C2002.43 133.4 1997.23 135.4 1991.23 135.4C1985.03 135.4 1979.73 133.4 1975.33 129.4C1970.93 125.4 1968.73 120 1968.73 113.2C1968.73 106.2 1970.93 100.7 1975.33 96.7C1979.73 92.7 1985.03 90.7 1991.23 90.7C1997.23 90.7 2002.43 92.7 2006.83 96.7C2011.23 100.7 2013.43 106.2 2013.43 113.2Z" fill="#004847"/>
<path d="M1743.79 296.2C1743.79 303.2 1741.39 308.9 1736.59 313.3C1731.99 317.7 1726.39 319.9 1719.79 319.9C1712.99 319.9 1707.29 317.7 1702.69 313.3C1698.09 308.9 1695.79 303.2 1695.79 296.2C1695.79 289.2 1698.09 283.5 1702.69 279.1C1707.29 274.5 1712.99 272.2 1719.79 272.2C1726.39 272.2 1731.99 274.5 1736.59 279.1C1741.39 283.5 1743.79 289.2 1743.79 296.2Z" fill="#FF9F73"/>
<line y1="-2.5" x2="700" y2="-2.5" transform="matrix(0.999659 0.0261298 -0.0147071 0.999892 950 198)" stroke="white" stroke-width="5"/>
<line y1="-2.5" x2="700" y2="-2.5" transform="matrix(0.999659 0.0261298 -0.0147071 0.999892 950 207)" stroke="white" stroke-width="5"/>
</g>
<defs>
<linearGradient id="paint0_linear_5_2" x1="32.6737" y1="262.146" x2="63.0158" y2="89.8987" gradientUnits="userSpaceOnUse">
<stop stop-color="#FCCA90"/>
<stop offset="1" stop-color="#FF9F73"/>
</linearGradient>
<clipPath id="clip0_5_2">
<rect width="2033" height="429" fill="white"/>
</clipPath>
</defs>
</svg>
