<svg width="1498" height="519" viewBox="0 0 1498 519" fill="none" xmlns="http://www.w3.org/2000/svg">
<g clip-path="url(#clip0_5_2)">
<rect width="1498" height="519" fill="white"/>
<path d="M375.067 130.988C376.657 129.788 376.657 127.4 375.067 126.199L285.546 58.6113C283.57 57.1191 280.738 58.529 280.738 61.0055V196.182C280.738 198.658 283.57 200.068 285.546 198.576L375.067 130.988Z" fill="#007B7A"/>
<path d="M108.861 326.526C110.982 327.922 113.876 327.763 116.042 326.131L253.624 222.456C256.399 220.364 257.074 216.578 255.131 213.999L202.064 143.577C200.117 140.994 196.282 140.603 193.507 142.705L31.2141 265.605C27.7984 268.192 27.732 273.124 31.0832 275.33L108.861 326.526Z" fill="url(#paint0_linear_5_2)"/>
<path d="M543.067 256.988C544.657 255.788 544.657 253.4 543.067 252.199L453.546 184.611C451.57 183.119 448.739 184.529 448.739 187.006V322.182C448.739 324.658 451.57 326.068 453.546 324.576L543.067 256.988Z" fill="#A3DFD9"/>
<path d="M192.41 126.199C190.82 127.4 190.82 129.788 192.41 130.988L281.931 198.576C283.908 200.068 286.739 198.658 286.739 196.182V61.0055C286.739 58.5289 283.908 57.119 281.931 58.6112L192.41 126.199Z" fill="#A3DFD9"/>
<path d="M360.41 252.199C358.82 253.4 358.82 255.788 360.41 256.988L449.931 324.576C451.907 326.068 454.738 324.658 454.738 322.182V187.006C454.738 184.529 451.907 183.119 449.931 184.611L360.41 252.199Z" fill="#49C0B4"/>
<path d="M286.239 197.594L191.739 128.094V269.474L286.239 197.594Z" fill="#007B7A"/>
<path d="M286.239 197.907L376.239 128.594V269.594L286.239 197.907Z" fill="#49C0B4"/>
<path d="M601.762 230.437C599.968 229.243 597.198 229.11 595.5 230.437L488.5 315.5C486.324 317.2 485.3 320.324 487 322.5L533.615 381.367C535.318 383.547 538.468 383.93 540.644 382.221L667.851 282.312C670.528 280.21 670.367 276.105 667.533 274.218L601.762 230.437Z" fill="#09A2A2"/>
<path d="M451.792 344.847L357.292 414.347V272.966L451.792 344.847Z" fill="#09A2A0"/>
<path d="M451.792 344.533L541.792 413.847V272.847L451.792 344.533Z" fill="#A3DFD9"/>
<path d="M297.315 232.252C299.087 231.027 301.446 231.075 303.166 232.372L412.481 314.746C414.686 316.408 415.127 319.543 413.465 321.748L368.085 381.97C366.42 384.179 363.278 384.617 361.073 382.946L232.141 285.273C229.428 283.217 229.517 279.11 232.318 277.174L297.315 232.252Z" fill="#09A2A2"/>
<path d="M668.105 274.668C670.907 276.605 670.995 280.715 668.278 282.769L603.094 333.5C599.792 335.997 594.819 332.38 594.837 328.241L593.5 234C593.518 229.979 598.192 228.214 601.5 230.5L668.105 274.668Z" fill="#004847"/>
<path d="M418.792 313.847C418.792 336.49 404.466 354.847 386.792 354.847C369.119 354.847 354.792 336.49 354.792 313.847C354.792 291.203 369.119 272.847 386.792 272.847C404.466 272.847 418.792 291.203 418.792 313.847Z" fill="white"/>
<path d="M541.757 412.452C543.347 413.653 543.347 416.041 541.757 417.241L452.236 484.829C450.259 486.321 447.428 484.911 447.428 482.435V347.258C447.428 344.782 450.259 343.372 452.236 344.864L541.757 412.452Z" fill="#FF9F73"/>
<path d="M359.099 417.241C357.509 416.041 357.509 413.653 359.099 412.452L448.62 344.864C450.597 343.372 453.428 344.782 453.428 347.258V482.435C453.428 484.911 450.597 486.321 448.62 484.829L359.099 417.241Z" fill="#004847"/>
<path d="M799.925 323C797.431 318.807 794.541 314.103 791.255 308.89C788.081 303.677 784.625 298.293 780.885 292.74C777.145 287.073 773.235 281.35 769.155 275.57C765.188 269.79 761.221 264.237 757.255 258.91C753.288 253.47 749.435 248.37 745.695 243.61C741.955 238.85 738.498 234.657 735.325 231.03V323H719.175V205.19H732.265C737.591 210.857 743.258 217.487 749.265 225.08C755.385 232.56 761.391 240.323 767.285 248.37C773.291 256.303 778.901 264.123 784.115 271.83C789.441 279.537 793.918 286.393 797.545 292.4V205.19H813.695V323H799.925ZM920.716 320.45C917.09 321.357 912.273 322.32 906.266 323.34C900.373 324.36 893.516 324.87 885.696 324.87C878.896 324.87 873.173 323.907 868.526 321.98C863.88 319.94 860.14 317.107 857.306 313.48C854.473 309.853 852.433 305.603 851.186 300.73C849.94 295.743 849.316 290.247 849.316 284.24V234.6H865.126V280.84C865.126 291.607 866.826 299.313 870.226 303.96C873.626 308.607 879.35 310.93 887.396 310.93C889.096 310.93 890.853 310.873 892.666 310.76C894.48 310.647 896.18 310.533 897.766 310.42C899.353 310.193 900.77 310.023 902.016 309.91C903.376 309.683 904.34 309.457 904.906 309.23V234.6H920.716V320.45ZM1025.47 234.6C1021.05 251.147 1015.84 267.013 1009.83 282.2C1003.94 297.387 998.217 310.987 992.664 323H978.384C972.83 310.987 967.05 297.387 961.044 282.2C955.15 267.013 949.994 251.147 945.574 234.6H962.574C963.934 240.153 965.52 246.103 967.334 252.45C969.26 258.683 971.244 264.917 973.284 271.15C975.437 277.27 977.59 283.22 979.744 289C981.897 294.78 983.937 299.937 985.864 304.47C987.79 299.937 989.83 294.78 991.984 289C994.137 283.22 996.234 277.27 998.274 271.15C1000.43 264.917 1002.41 258.683 1004.22 252.45C1006.15 246.103 1007.79 240.153 1009.15 234.6H1025.47ZM1042.9 339.49C1044.15 340.057 1045.74 340.567 1047.66 341.02C1049.7 341.587 1051.69 341.87 1053.61 341.87C1059.85 341.87 1064.72 340.453 1068.23 337.62C1071.75 334.9 1074.92 330.423 1077.75 324.19C1070.61 310.59 1063.93 296.197 1057.69 281.01C1051.57 265.71 1046.47 250.24 1042.39 234.6H1059.39C1060.64 239.7 1062.11 245.197 1063.81 251.09C1065.63 256.983 1067.61 263.047 1069.76 269.28C1071.92 275.513 1074.24 281.747 1076.73 287.98C1079.23 294.213 1081.83 300.22 1084.55 306C1088.86 294.1 1092.6 282.313 1095.77 270.64C1098.95 258.967 1101.95 246.953 1104.78 234.6H1121.1C1117.02 251.26 1112.49 267.297 1107.5 282.71C1102.52 298.01 1097.13 312.347 1091.35 325.72C1089.09 330.82 1086.71 335.183 1084.21 338.81C1081.83 342.55 1079.17 345.61 1076.22 347.99C1073.28 350.37 1069.93 352.127 1066.19 353.26C1062.57 354.393 1058.43 354.96 1053.78 354.96C1052.54 354.96 1051.23 354.847 1049.87 354.62C1048.51 354.507 1047.15 354.28 1045.79 353.94C1044.55 353.713 1043.36 353.43 1042.22 353.09C1041.2 352.75 1040.47 352.467 1040.01 352.24L1042.9 339.49ZM1146.28 237.15C1149.9 236.243 1154.72 235.28 1160.73 234.26C1166.73 233.24 1173.65 232.73 1181.47 232.73C1188.49 232.73 1194.33 233.75 1198.98 235.79C1203.62 237.717 1207.31 240.493 1210.03 244.12C1212.86 247.633 1214.84 251.883 1215.98 256.87C1217.11 261.857 1217.68 267.353 1217.68 273.36V323H1201.87V276.76C1201.87 271.32 1201.47 266.673 1200.68 262.82C1200 258.967 1198.81 255.85 1197.11 253.47C1195.41 251.09 1193.14 249.39 1190.31 248.37C1187.47 247.237 1183.96 246.67 1179.77 246.67C1178.07 246.67 1176.31 246.727 1174.5 246.84C1172.68 246.953 1170.93 247.123 1169.23 247.35C1167.64 247.463 1166.17 247.633 1164.81 247.86C1163.56 248.087 1162.65 248.257 1162.09 248.37V323H1146.28V237.15ZM1332.65 311.61C1336.39 311.61 1339.68 311.553 1342.51 311.44C1345.46 311.213 1347.89 310.873 1349.82 310.42V284.07C1348.69 283.503 1346.82 283.05 1344.21 282.71C1341.72 282.257 1338.66 282.03 1335.03 282.03C1332.65 282.03 1330.1 282.2 1327.38 282.54C1324.77 282.88 1322.34 283.617 1320.07 284.75C1317.92 285.77 1316.1 287.243 1314.63 289.17C1313.16 290.983 1312.42 293.42 1312.42 296.48C1312.42 302.147 1314.23 306.113 1317.86 308.38C1321.49 310.533 1326.42 311.61 1332.65 311.61ZM1331.29 232.39C1337.64 232.39 1342.96 233.24 1347.27 234.94C1351.69 236.527 1355.2 238.85 1357.81 241.91C1360.53 244.857 1362.46 248.427 1363.59 252.62C1364.72 256.7 1365.29 261.233 1365.29 266.22V321.47C1363.93 321.697 1362 322.037 1359.51 322.49C1357.13 322.83 1354.41 323.17 1351.35 323.51C1348.29 323.85 1344.95 324.133 1341.32 324.36C1337.81 324.7 1334.29 324.87 1330.78 324.87C1325.79 324.87 1321.2 324.36 1317.01 323.34C1312.82 322.32 1309.19 320.733 1306.13 318.58C1303.07 316.313 1300.69 313.367 1298.99 309.74C1297.29 306.113 1296.44 301.75 1296.44 296.65C1296.44 291.777 1297.4 287.583 1299.33 284.07C1301.37 280.557 1304.09 277.723 1307.49 275.57C1310.89 273.417 1314.86 271.83 1319.39 270.81C1323.92 269.79 1328.68 269.28 1333.67 269.28C1335.26 269.28 1336.9 269.393 1338.6 269.62C1340.3 269.733 1341.89 269.96 1343.36 270.3C1344.95 270.527 1346.31 270.753 1347.44 270.98C1348.57 271.207 1349.37 271.377 1349.82 271.49V267.07C1349.82 264.463 1349.54 261.913 1348.97 259.42C1348.4 256.813 1347.38 254.547 1345.91 252.62C1344.44 250.58 1342.4 248.993 1339.79 247.86C1337.3 246.613 1334.01 245.99 1329.93 245.99C1324.72 245.99 1320.13 246.387 1316.16 247.18C1312.31 247.86 1309.42 248.597 1307.49 249.39L1305.62 236.3C1307.66 235.393 1311.06 234.543 1315.82 233.75C1320.58 232.843 1325.74 232.39 1331.29 232.39ZM1415.86 323H1400.05V234.6H1415.86V323ZM1407.87 218.62C1405.03 218.62 1402.6 217.713 1400.56 215.9C1398.63 213.973 1397.67 211.423 1397.67 208.25C1397.67 205.077 1398.63 202.583 1400.56 200.77C1402.6 198.843 1405.03 197.88 1407.87 197.88C1410.7 197.88 1413.08 198.843 1415.01 200.77C1417.05 202.583 1418.07 205.077 1418.07 208.25C1418.07 211.423 1417.05 213.973 1415.01 215.9C1413.08 217.713 1410.7 218.62 1407.87 218.62Z" fill="#004847"/>
<path d="M1271.09 313.82C1271.09 316.88 1270.07 319.543 1268.03 321.81C1265.99 324.077 1263.22 325.21 1259.7 325.21C1256.19 325.21 1253.41 324.077 1251.37 321.81C1249.33 319.543 1248.31 316.88 1248.31 313.82C1248.31 310.76 1249.33 308.097 1251.37 305.83C1253.41 303.563 1256.19 302.43 1259.7 302.43C1263.22 302.43 1265.99 303.563 1268.03 305.83C1270.07 308.097 1271.09 310.76 1271.09 313.82Z" fill="#FF9F73"/>
<line y1="-1.5" x2="450.154" y2="-1.5" transform="matrix(0.999659 0.0261298 -0.0147071 0.999892 842 270)" stroke="white" stroke-width="3"/>
<line y1="-1.5" x2="450.154" y2="-1.5" transform="matrix(0.999659 0.0261298 -0.0147071 0.999892 842 276)" stroke="white" stroke-width="3"/>
</g>
<defs>
<linearGradient id="paint0_linear_5_2" x1="60.6737" y1="319.146" x2="91.0158" y2="146.899" gradientUnits="userSpaceOnUse">
<stop stop-color="#FCCA90"/>
<stop offset="1" stop-color="#FF9F73"/>
</linearGradient>
<clipPath id="clip0_5_2">
<rect width="1498" height="519" fill="white"/>
</clipPath>
</defs>
</svg>
