<svg width="1445" height="429" viewBox="0 0 1445 429" fill="none" xmlns="http://www.w3.org/2000/svg">
<g clip-path="url(#clip0_5_2)">
<rect width="1445" height="429" fill="white"/>
<path d="M347.067 73.9879C348.657 72.7876 348.657 70.3997 347.067 69.1994L257.546 1.6113C255.57 0.119057 252.738 1.52899 252.738 4.00554V139.182C252.738 141.658 255.57 143.068 257.546 141.576L347.067 73.9879Z" fill="#007B7A"/>
<path d="M80.8612 269.526C82.9825 270.922 85.8764 270.763 88.0424 269.131L225.624 165.456C228.399 163.364 229.074 159.578 227.131 156.999L174.064 86.5772C172.117 83.9936 168.282 83.6026 165.507 85.7045L3.21406 208.605C-0.201639 211.192 -0.268011 216.124 3.0832 218.33L80.8612 269.526Z" fill="url(#paint0_linear_5_2)"/>
<path d="M515.067 199.988C516.657 198.788 516.657 196.4 515.067 195.199L425.546 127.611C423.57 126.119 420.739 127.529 420.739 130.006V265.182C420.739 267.658 423.57 269.068 425.546 267.576L515.067 199.988Z" fill="#A3DFD9"/>
<path d="M164.41 69.1994C162.82 70.3997 162.82 72.7876 164.41 73.9879L253.931 141.576C255.908 143.068 258.739 141.658 258.739 139.182V4.00547C258.739 1.52893 255.908 0.118979 253.931 1.61122L164.41 69.1994Z" fill="#A3DFD9"/>
<path d="M332.41 195.199C330.82 196.4 330.82 198.788 332.41 199.988L421.931 267.576C423.907 269.068 426.738 267.658 426.738 265.182V130.006C426.738 127.529 423.907 126.119 421.931 127.611L332.41 195.199Z" fill="#49C0B4"/>
<path d="M258.239 140.594L163.739 71.0937V212.474L258.239 140.594Z" fill="#007B7A"/>
<path d="M258.239 140.907L348.239 71.5937V212.594L258.239 140.907Z" fill="#49C0B4"/>
<path d="M573.762 173.437C571.968 172.243 569.198 172.11 567.5 173.437L460.5 258.5C458.324 260.2 457.3 263.324 459 265.5L505.615 324.367C507.318 326.547 510.468 326.93 512.644 325.221L639.851 225.312C642.528 223.21 642.367 219.105 639.533 217.218L573.762 173.437Z" fill="#09A2A2"/>
<path d="M423.792 287.847L329.292 357.347V215.966L423.792 287.847Z" fill="#09A2A0"/>
<path d="M423.792 287.533L513.792 356.847V215.847L423.792 287.533Z" fill="#A3DFD9"/>
<path d="M269.315 175.252C271.087 174.027 273.446 174.075 275.166 175.372L384.481 257.746C386.686 259.408 387.127 262.543 385.465 264.748L340.085 324.97C338.42 327.179 335.278 327.617 333.073 325.946L204.141 228.273C201.428 226.217 201.517 222.11 204.318 220.174L269.315 175.252Z" fill="#09A2A2"/>
<path d="M640.105 217.668C642.907 219.605 642.995 223.715 640.278 225.769L575.094 276.5C571.792 278.997 566.819 275.38 566.837 271.241L565.5 177C565.518 172.979 570.192 171.214 573.5 173.5L640.105 217.668Z" fill="#004847"/>
<path d="M390.792 256.847C390.792 279.49 376.466 297.847 358.792 297.847C341.119 297.847 326.792 279.49 326.792 256.847C326.792 234.203 341.119 215.847 358.792 215.847C376.466 215.847 390.792 234.203 390.792 256.847Z" fill="white"/>
<path d="M513.757 355.452C515.347 356.653 515.347 359.041 513.757 360.241L424.236 427.829C422.259 429.321 419.428 427.911 419.428 425.435V290.258C419.428 287.782 422.259 286.372 424.236 287.864L513.757 355.452Z" fill="#FF9F73"/>
<path d="M331.099 360.241C329.509 359.041 329.509 356.653 331.099 355.452L420.62 287.864C422.597 286.372 425.428 287.782 425.428 290.258V425.435C425.428 427.911 422.597 429.321 420.62 427.829L331.099 360.241Z" fill="#004847"/>
<path d="M752.457 275C748.377 268.16 743.817 260.84 738.777 253.04C733.737 245.12 728.517 237.2 723.117 229.28C717.717 221.24 712.197 213.5 706.557 206.06C701.037 198.5 695.757 191.72 690.717 185.72V275H668.397V150.26H686.937C691.737 155.3 696.897 161.3 702.417 168.26C707.937 175.1 713.457 182.24 718.977 189.68C724.617 197.12 730.017 204.62 735.177 212.18C740.457 219.62 745.137 226.58 749.217 233.06V150.26H771.717V275H752.457ZM886.779 272.12C882.579 273.2 877.119 274.28 870.399 275.36C863.679 276.56 856.299 277.16 848.259 277.16C840.699 277.16 834.339 276.08 829.179 273.92C824.139 271.76 820.059 268.76 816.939 264.92C813.939 261.08 811.779 256.52 810.459 251.24C809.139 245.84 808.479 239.96 808.479 233.6V180.86H830.259V230.18C830.259 240.26 831.699 247.46 834.579 251.78C837.579 256.1 842.739 258.26 850.059 258.26C852.699 258.26 855.459 258.14 858.339 257.9C861.339 257.66 863.559 257.36 864.999 257V180.86H886.779V272.12ZM947.621 275C941.621 262.64 935.441 248.48 929.081 232.52C922.841 216.44 917.141 199.22 911.981 180.86H935.201C936.521 186.14 938.021 191.84 939.701 197.96C941.501 203.96 943.361 210.02 945.281 216.14C947.321 222.14 949.361 228.02 951.401 233.78C953.561 239.42 955.541 244.52 957.341 249.08C959.141 244.52 961.061 239.42 963.101 233.78C965.141 228.02 967.121 222.14 969.041 216.14C971.081 210.02 973.001 203.96 974.801 197.96C976.601 191.84 978.161 186.14 979.481 180.86H1001.98C996.821 199.22 991.061 216.44 984.701 232.52C978.461 248.48 972.341 262.64 966.341 275H947.621ZM1106.92 180.86C1097.2 216.62 1085.92 249.02 1073.08 278.06C1070.68 283.46 1068.22 288.08 1065.7 291.92C1063.18 295.76 1060.36 298.94 1057.24 301.46C1054.12 303.98 1050.64 305.78 1046.8 306.86C1042.96 308.06 1038.52 308.66 1033.48 308.66C1030.12 308.66 1026.76 308.3 1023.4 307.58C1020.16 306.86 1017.7 306.08 1016.02 305.24L1019.98 287.78C1024.3 289.46 1028.56 290.3 1032.76 290.3C1038.4 290.3 1042.78 288.92 1045.9 286.16C1049.14 283.52 1051.96 279.38 1054.36 273.74C1047.52 260.54 1040.92 246.14 1034.56 230.54C1028.32 214.94 1022.74 198.38 1017.82 180.86H1041.04C1042.24 185.9 1043.68 191.36 1045.36 197.24C1047.16 203.12 1049.08 209.12 1051.12 215.24C1053.16 221.24 1055.32 227.24 1057.6 233.24C1059.88 239.24 1062.16 244.82 1064.44 249.98C1068.28 239.3 1071.88 227.96 1075.24 215.96C1078.6 203.84 1081.66 192.14 1084.42 180.86H1106.92ZM1132.4 183.92C1136.6 182.72 1142.06 181.58 1148.78 180.5C1155.5 179.42 1162.94 178.88 1171.1 178.88C1178.78 178.88 1185.2 179.96 1190.36 182.12C1195.52 184.16 1199.6 187.1 1202.6 190.94C1205.72 194.66 1207.88 199.22 1209.08 204.62C1210.4 209.9 1211.06 215.72 1211.06 222.08V275H1189.28V225.5C1189.28 220.46 1188.92 216.2 1188.2 212.72C1187.6 209.12 1186.52 206.24 1184.96 204.08C1183.52 201.8 1181.48 200.18 1178.84 199.22C1176.32 198.14 1173.2 197.6 1169.48 197.6C1166.72 197.6 1163.84 197.78 1160.84 198.14C1157.84 198.5 1155.62 198.8 1154.18 199.04V275H1132.4V183.92ZM1336.62 259.7C1343.34 259.7 1348.44 259.34 1351.92 258.62V234.5C1350.72 234.14 1348.98 233.78 1346.7 233.42C1344.42 233.06 1341.9 232.88 1339.14 232.88C1336.74 232.88 1334.28 233.06 1331.76 233.42C1329.36 233.78 1327.14 234.44 1325.1 235.4C1323.18 236.36 1321.62 237.74 1320.42 239.54C1319.22 241.22 1318.62 243.38 1318.62 246.02C1318.62 251.18 1320.24 254.78 1323.48 256.82C1326.72 258.74 1331.1 259.7 1336.62 259.7ZM1334.82 178.52C1342.02 178.52 1348.08 179.42 1353 181.22C1357.92 183.02 1361.82 185.54 1364.7 188.78C1367.7 192.02 1369.8 195.98 1371 200.66C1372.32 205.22 1372.98 210.26 1372.98 215.78V272.84C1369.62 273.56 1364.52 274.4 1357.68 275.36C1350.96 276.44 1343.34 276.98 1334.82 276.98C1329.18 276.98 1324.02 276.44 1319.34 275.36C1314.66 274.28 1310.64 272.54 1307.28 270.14C1304.04 267.74 1301.46 264.62 1299.54 260.78C1297.74 256.94 1296.84 252.2 1296.84 246.56C1296.84 241.16 1297.86 236.6 1299.9 232.88C1302.06 229.16 1304.94 226.16 1308.54 223.88C1312.14 221.48 1316.28 219.8 1320.96 218.84C1325.76 217.76 1330.74 217.22 1335.9 217.22C1338.3 217.22 1340.82 217.4 1343.46 217.76C1346.1 218 1348.92 218.48 1351.92 219.2V215.6C1351.92 213.08 1351.62 210.68 1351.02 208.4C1350.42 206.12 1349.34 204.14 1347.78 202.46C1346.34 200.66 1344.36 199.28 1341.84 198.32C1339.44 197.36 1336.38 196.88 1332.66 196.88C1327.62 196.88 1323 197.24 1318.8 197.96C1314.6 198.68 1311.18 199.52 1308.54 200.48L1305.84 182.84C1308.6 181.88 1312.62 180.92 1317.9 179.96C1323.18 179 1328.82 178.52 1334.82 178.52ZM1430.62 275H1408.84V180.86H1430.62V275ZM1432.96 153.32C1432.96 157.4 1431.64 160.64 1429 163.04C1426.36 165.44 1423.24 166.64 1419.64 166.64C1415.92 166.64 1412.74 165.44 1410.1 163.04C1407.46 160.64 1406.14 157.4 1406.14 153.32C1406.14 149.12 1407.46 145.82 1410.1 143.42C1412.74 141.02 1415.92 139.82 1419.64 139.82C1423.24 139.82 1426.36 141.02 1429 143.42C1431.64 145.82 1432.96 149.12 1432.96 153.32Z" fill="#004847"/>
<path d="M1271.17 263.12C1271.17 267.32 1269.73 270.74 1266.85 273.38C1264.09 276.02 1260.73 277.34 1256.77 277.34C1252.69 277.34 1249.27 276.02 1246.51 273.38C1243.75 270.74 1242.37 267.32 1242.37 263.12C1242.37 258.92 1243.75 255.5 1246.51 252.86C1249.27 250.1 1252.69 248.72 1256.77 248.72C1260.73 248.72 1264.09 250.1 1266.85 252.86C1269.73 255.5 1271.17 258.92 1271.17 263.12Z" fill="#FF9F73"/>
<line y1="-1.5" x2="450.154" y2="-1.5" transform="matrix(0.999659 0.0261298 -0.0147071 0.999892 824 213)" stroke="white" stroke-width="3"/>
<line y1="-1.5" x2="450.154" y2="-1.5" transform="matrix(0.999659 0.0261298 -0.0147071 0.999892 824 219)" stroke="white" stroke-width="3"/>
</g>
<defs>
<linearGradient id="paint0_linear_5_2" x1="32.6737" y1="262.146" x2="63.0158" y2="89.8987" gradientUnits="userSpaceOnUse">
<stop stop-color="#FCCA90"/>
<stop offset="1" stop-color="#FF9F73"/>
</linearGradient>
<clipPath id="clip0_5_2">
<rect width="1445" height="429" fill="white"/>
</clipPath>
</defs>
</svg>
