<svg width="2465" height="429" viewBox="0 0 2465 429" fill="none" xmlns="http://www.w3.org/2000/svg">
<g clip-path="url(#clip0_5_2)">
<rect width="2465" height="429" fill="white"/>
<path d="M347.067 73.9879C348.657 72.7876 348.657 70.3997 347.067 69.1994L257.546 1.6113C255.57 0.119057 252.738 1.52899 252.738 4.00554V139.182C252.738 141.658 255.57 143.068 257.546 141.576L347.067 73.9879Z" fill="#007B7A"/>
<path d="M80.8612 269.526C82.9825 270.922 85.8764 270.763 88.0424 269.131L225.624 165.456C228.399 163.364 229.074 159.578 227.131 156.999L174.064 86.5772C172.117 83.9936 168.282 83.6026 165.507 85.7045L3.21406 208.605C-0.201639 211.192 -0.268011 216.124 3.0832 218.33L80.8612 269.526Z" fill="url(#paint0_linear_5_2)"/>
<path d="M515.067 199.988C516.657 198.788 516.657 196.4 515.067 195.199L425.546 127.611C423.57 126.119 420.739 127.529 420.739 130.006V265.182C420.739 267.658 423.57 269.068 425.546 267.576L515.067 199.988Z" fill="#A3DFD9"/>
<path d="M164.41 69.1994C162.82 70.3997 162.82 72.7876 164.41 73.9879L253.931 141.576C255.908 143.068 258.739 141.658 258.739 139.182V4.00547C258.739 1.52893 255.908 0.118979 253.931 1.61122L164.41 69.1994Z" fill="#A3DFD9"/>
<path d="M332.41 195.199C330.82 196.4 330.82 198.788 332.41 199.988L421.931 267.576C423.907 269.068 426.738 267.658 426.738 265.182V130.006C426.738 127.529 423.907 126.119 421.931 127.611L332.41 195.199Z" fill="#49C0B4"/>
<path d="M258.239 140.594L163.739 71.0937V212.474L258.239 140.594Z" fill="#007B7A"/>
<path d="M258.239 140.907L348.239 71.5937V212.594L258.239 140.907Z" fill="#49C0B4"/>
<path d="M573.762 173.437C571.968 172.243 569.198 172.11 567.5 173.437L460.5 258.5C458.324 260.2 457.3 263.324 459 265.5L505.615 324.367C507.318 326.547 510.468 326.93 512.644 325.221L639.851 225.312C642.528 223.21 642.367 219.105 639.533 217.218L573.762 173.437Z" fill="#09A2A2"/>
<path d="M423.792 287.847L329.292 357.347V215.966L423.792 287.847Z" fill="#09A2A0"/>
<path d="M423.792 287.533L513.792 356.847V215.847L423.792 287.533Z" fill="#A3DFD9"/>
<path d="M269.315 175.252C271.087 174.027 273.446 174.075 275.166 175.372L384.481 257.746C386.686 259.408 387.127 262.543 385.465 264.748L340.085 324.97C338.42 327.179 335.278 327.617 333.073 325.946L204.141 228.273C201.428 226.217 201.517 222.11 204.318 220.174L269.315 175.252Z" fill="#09A2A2"/>
<path d="M640.105 217.668C642.907 219.605 642.995 223.715 640.278 225.769L575.094 276.5C571.792 278.997 566.819 275.38 566.837 271.241L565.5 177C565.518 172.979 570.192 171.214 573.5 173.5L640.105 217.668Z" fill="#004847"/>
<path d="M390.792 256.847C390.792 279.49 376.466 297.847 358.792 297.847C341.119 297.847 326.792 279.49 326.792 256.847C326.792 234.203 341.119 215.847 358.792 215.847C376.466 215.847 390.792 234.203 390.792 256.847Z" fill="white"/>
<path d="M513.757 355.452C515.347 356.653 515.347 359.041 513.757 360.241L424.236 427.829C422.259 429.321 419.428 427.911 419.428 425.435V290.258C419.428 287.782 422.259 286.372 424.236 287.864L513.757 355.452Z" fill="#FF9F73"/>
<path d="M331.099 360.241C329.509 359.041 329.509 356.653 331.099 355.452L420.62 287.864C422.597 286.372 425.428 287.782 425.428 290.258V425.435C425.428 427.911 422.597 429.321 420.62 427.829L331.099 360.241Z" fill="#004847"/>
<path d="M927.016 343C917.949 327.8 907.816 311.533 896.616 294.2C885.416 276.6 873.816 259 861.816 241.4C849.816 223.533 837.549 206.333 825.016 189.8C812.749 173 801.016 157.933 789.816 144.6V343H740.216V65.8H781.416C792.082 77 803.549 90.3333 815.816 105.8C828.082 121 840.349 136.867 852.616 153.4C865.149 169.933 877.149 186.6 888.616 203.4C900.349 219.933 910.749 235.4 919.816 249.8V65.8H969.816V343H927.016ZM1225.51 336.6C1216.18 339 1204.04 341.4 1189.11 343.8C1174.18 346.467 1157.78 347.8 1139.91 347.8C1123.11 347.8 1108.98 345.4 1097.51 340.6C1086.31 335.8 1077.24 329.133 1070.31 320.6C1063.64 312.067 1058.84 301.933 1055.91 290.2C1052.98 278.2 1051.51 265.133 1051.51 251V133.8H1099.91V243.4C1099.91 265.8 1103.11 281.8 1109.51 291.4C1116.18 301 1127.64 305.8 1143.91 305.8C1149.78 305.8 1155.91 305.533 1162.31 305C1168.98 304.467 1173.91 303.8 1177.11 303V133.8H1225.51V336.6ZM1360.71 343C1347.38 315.533 1333.65 284.067 1319.51 248.6C1305.65 212.867 1292.98 174.6 1281.51 133.8H1333.11C1336.05 145.533 1339.38 158.2 1343.11 171.8C1347.11 185.133 1351.25 198.6 1355.51 212.2C1360.05 225.533 1364.58 238.6 1369.11 251.4C1373.91 263.933 1378.31 275.267 1382.31 285.4C1386.31 275.267 1390.58 263.933 1395.11 251.4C1399.65 238.6 1404.05 225.533 1408.31 212.2C1412.85 198.6 1417.11 185.133 1421.11 171.8C1425.11 158.2 1428.58 145.533 1431.51 133.8H1481.51C1470.05 174.6 1457.25 212.867 1443.11 248.6C1429.25 284.067 1415.65 315.533 1402.31 343H1360.71ZM1714.71 133.8C1693.11 213.267 1668.04 285.267 1639.51 349.8C1634.18 361.8 1628.71 372.067 1623.11 380.6C1617.51 389.133 1611.24 396.2 1604.31 401.8C1597.38 407.4 1589.64 411.4 1581.11 413.8C1572.58 416.467 1562.71 417.8 1551.51 417.8C1544.04 417.8 1536.58 417 1529.11 415.4C1521.91 413.8 1516.44 412.067 1512.71 410.2L1521.51 371.4C1531.11 375.133 1540.58 377 1549.91 377C1562.44 377 1572.18 373.933 1579.11 367.8C1586.31 361.933 1592.58 352.733 1597.91 340.2C1582.71 310.867 1568.04 278.867 1553.91 244.2C1540.04 209.533 1527.64 172.733 1516.71 133.8H1568.31C1570.98 145 1574.18 157.133 1577.91 170.2C1581.91 183.267 1586.18 196.6 1590.71 210.2C1595.24 223.533 1600.04 236.867 1605.11 250.2C1610.18 263.533 1615.24 275.933 1620.31 287.4C1628.84 263.667 1636.84 238.467 1644.31 211.8C1651.78 184.867 1658.58 158.867 1664.71 133.8H1714.71ZM1771.33 140.6C1780.66 137.933 1792.8 135.4 1807.73 133C1822.66 130.6 1839.2 129.4 1857.33 129.4C1874.4 129.4 1888.66 131.8 1900.13 136.6C1911.6 141.133 1920.66 147.667 1927.33 156.2C1934.26 164.467 1939.06 174.6 1941.73 186.6C1944.66 198.333 1946.13 211.267 1946.13 225.4V343H1897.73V233C1897.73 221.8 1896.93 212.333 1895.33 204.6C1894 196.6 1891.6 190.2 1888.13 185.4C1884.93 180.333 1880.4 176.733 1874.53 174.6C1868.93 172.2 1862 171 1853.73 171C1847.6 171 1841.2 171.4 1834.53 172.2C1827.86 173 1822.93 173.667 1819.73 174.2V343H1771.33V140.6ZM2225.17 309C2240.1 309 2251.43 308.2 2259.17 306.6V253C2256.5 252.2 2252.63 251.4 2247.57 250.6C2242.5 249.8 2236.9 249.4 2230.77 249.4C2225.43 249.4 2219.97 249.8 2214.37 250.6C2209.03 251.4 2204.1 252.867 2199.57 255C2195.3 257.133 2191.83 260.2 2189.17 264.2C2186.5 267.933 2185.17 272.733 2185.17 278.6C2185.17 290.067 2188.77 298.067 2195.97 302.6C2203.17 306.867 2212.9 309 2225.17 309ZM2221.17 128.6C2237.17 128.6 2250.63 130.6 2261.57 134.6C2272.5 138.6 2281.17 144.2 2287.57 151.4C2294.23 158.6 2298.9 167.4 2301.57 177.8C2304.5 187.933 2305.97 199.133 2305.97 211.4V338.2C2298.5 339.8 2287.17 341.667 2271.97 343.8C2257.03 346.2 2240.1 347.4 2221.17 347.4C2208.63 347.4 2197.17 346.2 2186.77 343.8C2176.37 341.4 2167.43 337.533 2159.97 332.2C2152.77 326.867 2147.03 319.933 2142.77 311.4C2138.77 302.867 2136.77 292.333 2136.77 279.8C2136.77 267.8 2139.03 257.667 2143.57 249.4C2148.37 241.133 2154.77 234.467 2162.77 229.4C2170.77 224.067 2179.97 220.333 2190.37 218.2C2201.03 215.8 2212.1 214.6 2223.57 214.6C2228.9 214.6 2234.5 215 2240.37 215.8C2246.23 216.333 2252.5 217.4 2259.17 219V211C2259.17 205.4 2258.5 200.067 2257.17 195C2255.83 189.933 2253.43 185.533 2249.97 181.8C2246.77 177.8 2242.37 174.733 2236.77 172.6C2231.43 170.467 2224.63 169.4 2216.37 169.4C2205.17 169.4 2194.9 170.2 2185.57 171.8C2176.23 173.4 2168.63 175.267 2162.77 177.4L2156.77 138.2C2162.9 136.067 2171.83 133.933 2183.57 131.8C2195.3 129.667 2207.83 128.6 2221.17 128.6ZM2434.04 343H2385.64V133.8H2434.04V343ZM2439.24 72.6C2439.24 81.6667 2436.3 88.8667 2430.44 94.2C2424.57 99.5333 2417.64 102.2 2409.64 102.2C2401.37 102.2 2394.3 99.5333 2388.44 94.2C2382.57 88.8667 2379.64 81.6667 2379.64 72.6C2379.64 63.2667 2382.57 55.9333 2388.44 50.6C2394.3 45.2667 2401.37 42.6 2409.64 42.6C2417.64 42.6 2424.57 45.2667 2430.44 50.6C2436.3 55.9333 2439.24 63.2667 2439.24 72.6Z" fill="#004847"/>
<path d="M2079.72 316.6C2079.72 325.933 2076.52 333.533 2070.12 339.4C2063.98 345.267 2056.52 348.2 2047.72 348.2C2038.65 348.2 2031.05 345.267 2024.92 339.4C2018.78 333.533 2015.72 325.933 2015.72 316.6C2015.72 307.267 2018.78 299.667 2024.92 293.8C2031.05 287.667 2038.65 284.6 2047.72 284.6C2056.52 284.6 2063.98 287.667 2070.12 293.8C2076.52 299.667 2079.72 307.267 2079.72 316.6Z" fill="#FF9F73"/>
<line y1="-2.5" x2="800" y2="-2.5" transform="matrix(1 0 0.0114249 0.999935 1067.88 204.145)" stroke="white" stroke-width="5"/>
<line y1="-2.5" x2="800" y2="-2.5" transform="matrix(1 0 0.0114249 0.999935 1067.88 213.145)" stroke="white" stroke-width="5"/>
</g>
<defs>
<linearGradient id="paint0_linear_5_2" x1="32.6737" y1="262.146" x2="63.0158" y2="89.8987" gradientUnits="userSpaceOnUse">
<stop stop-color="#FCCA90"/>
<stop offset="1" stop-color="#FF9F73"/>
</linearGradient>
<clipPath id="clip0_5_2">
<rect width="2465" height="429" fill="white"/>
</clipPath>
</defs>
</svg>
