<svg width="2231" height="429" viewBox="0 0 2231 429" fill="none" xmlns="http://www.w3.org/2000/svg">
<g clip-path="url(#clip0_8_28)">
<rect width="2231" height="429" fill="white" fill-opacity="0.01"/>
<path d="M347.067 73.9879C348.657 72.7876 348.657 70.3997 347.067 69.1994L257.546 1.6113C255.57 0.119057 252.739 1.52899 252.739 4.00554V139.182C252.739 141.658 255.57 143.068 257.546 141.576L347.067 73.9879Z" fill="#007B7A"/>
<path d="M80.861 269.526C82.9822 270.922 85.8762 270.763 88.0421 269.131L225.623 165.456C228.399 163.364 229.074 159.578 227.13 156.999L174.064 86.5772C172.117 83.9936 168.282 83.6026 165.506 85.7045L3.21381 208.605C-0.201883 211.192 -0.268255 216.124 3.08296 218.33L80.861 269.526Z" fill="url(#paint0_linear_8_28)"/>
<path d="M515.067 199.988C516.657 198.788 516.657 196.4 515.067 195.199L425.546 127.611C423.57 126.119 420.739 127.529 420.739 130.006V265.182C420.739 267.658 423.57 269.068 425.546 267.576L515.067 199.988Z" fill="#A3DFD9"/>
<path d="M164.41 69.1994C162.82 70.3997 162.82 72.7876 164.41 73.9879L253.931 141.576C255.908 143.068 258.739 141.658 258.739 139.182V4.00547C258.739 1.52893 255.908 0.118979 253.931 1.61122L164.41 69.1994Z" fill="#A3DFD9"/>
<path d="M332.41 195.199C330.82 196.4 330.82 198.788 332.41 199.988L421.931 267.576C423.907 269.068 426.738 267.658 426.738 265.182V130.006C426.738 127.529 423.907 126.119 421.931 127.611L332.41 195.199Z" fill="#49C0B4"/>
<path d="M258.239 140.594L163.739 71.0937V212.474L258.239 140.594Z" fill="#007B7A"/>
<path d="M258.239 140.907L348.239 71.5937V212.594L258.239 140.907Z" fill="#49C0B4"/>
<path d="M573.762 173.437C571.968 172.243 569.198 172.11 567.5 173.437L460.5 258.5C458.324 260.2 457.3 263.324 459 265.5L505.615 324.367C507.319 326.547 510.468 326.93 512.644 325.221L639.851 225.312C642.528 223.21 642.367 219.105 639.533 217.218L573.762 173.437Z" fill="#09A2A2"/>
<path d="M423.792 287.847L329.292 357.347V215.966L423.792 287.847Z" fill="#09A2A0"/>
<path d="M423.792 287.533L513.792 356.847V215.847L423.792 287.533Z" fill="#A3DFD9"/>
<path d="M269.315 175.252C271.087 174.027 273.446 174.075 275.166 175.372L384.481 257.746C386.686 259.408 387.127 262.543 385.465 264.748L340.085 324.97C338.42 327.179 335.278 327.617 333.073 325.946L204.141 228.273C201.428 226.217 201.517 222.11 204.318 220.174L269.315 175.252Z" fill="#09A2A2"/>
<path d="M640.105 217.668C642.907 219.605 642.995 223.715 640.278 225.769L575.094 276.5C571.792 278.997 566.819 275.38 566.837 271.241L565.5 177C565.518 172.979 570.192 171.214 573.5 173.5L640.105 217.668Z" fill="#004847"/>
<path d="M390.792 256.847C390.792 279.49 376.466 297.847 358.792 297.847C341.119 297.847 326.792 279.49 326.792 256.847C326.792 234.203 341.119 215.847 358.792 215.847C376.466 215.847 390.792 234.203 390.792 256.847Z" fill="white"/>
<path d="M513.757 355.452C515.347 356.653 515.347 359.041 513.757 360.241L424.236 427.829C422.259 429.321 419.428 427.911 419.428 425.435V290.258C419.428 287.782 422.259 286.372 424.236 287.864L513.757 355.452Z" fill="#FF9F73"/>
<path d="M331.099 360.241C329.509 359.041 329.509 356.653 331.099 355.452L420.62 287.864C422.597 286.372 425.428 287.782 425.428 290.258V425.435C425.428 427.911 422.597 429.321 420.62 427.829L331.099 360.241Z" fill="#004847"/>
<path d="M885.389 348C877.455 334.7 868.589 320.467 858.789 305.3C848.989 289.9 838.839 274.5 828.339 259.1C817.839 243.467 807.105 228.417 796.139 213.95C785.405 199.25 775.139 186.067 765.339 174.4V348H721.939V105.45H757.989C767.322 115.25 777.355 126.917 788.089 140.45C798.822 153.75 809.555 167.633 820.289 182.1C831.255 196.567 841.755 211.15 851.789 225.85C862.055 240.317 871.155 253.85 879.089 266.45V105.45H922.839V348H885.389ZM1146.57 342.4C1138.4 344.5 1127.79 346.6 1114.72 348.7C1101.65 351.033 1087.3 352.2 1071.67 352.2C1056.97 352.2 1044.6 350.1 1034.57 345.9C1024.77 341.7 1016.84 335.867 1010.77 328.4C1004.94 320.933 1000.74 312.067 998.171 301.8C995.604 291.3 994.321 279.867 994.321 267.5V164.95H1036.67V260.85C1036.67 280.45 1039.47 294.45 1045.07 302.85C1050.9 311.25 1060.94 315.45 1075.17 315.45C1080.3 315.45 1085.67 315.217 1091.27 314.75C1097.1 314.283 1101.42 313.7 1104.22 313V164.95H1146.57V342.4ZM1264.87 348C1253.21 323.967 1241.19 296.433 1228.82 265.4C1216.69 234.133 1205.61 200.65 1195.57 164.95H1240.72C1243.29 175.217 1246.21 186.3 1249.47 198.2C1252.97 209.867 1256.59 221.65 1260.32 233.55C1264.29 245.217 1268.26 256.65 1272.22 267.85C1276.42 278.817 1280.27 288.733 1283.77 297.6C1287.27 288.733 1291.01 278.817 1294.97 267.85C1298.94 256.65 1302.79 245.217 1306.52 233.55C1310.49 221.65 1314.22 209.867 1317.72 198.2C1321.22 186.3 1324.26 175.217 1326.82 164.95H1370.57C1360.54 200.65 1349.34 234.133 1336.97 265.4C1324.84 296.433 1312.94 323.967 1301.27 348H1264.87ZM1574.62 164.95C1555.72 234.483 1533.79 297.483 1508.82 353.95C1504.15 364.45 1499.37 373.433 1494.47 380.9C1489.57 388.367 1484.09 394.55 1478.02 399.45C1471.95 404.35 1465.19 407.85 1457.72 409.95C1450.25 412.283 1441.62 413.45 1431.82 413.45C1425.29 413.45 1418.75 412.75 1412.22 411.35C1405.92 409.95 1401.14 408.433 1397.87 406.8L1405.57 372.85C1413.97 376.117 1422.25 377.75 1430.42 377.75C1441.39 377.75 1449.9 375.067 1455.97 369.7C1462.27 364.567 1467.75 356.517 1472.42 345.55C1459.12 319.883 1446.29 291.883 1433.92 261.55C1421.79 231.217 1410.94 199.017 1401.37 164.95H1446.52C1448.85 174.75 1451.65 185.367 1454.92 196.8C1458.42 208.233 1462.15 219.9 1466.12 231.8C1470.09 243.467 1474.29 255.133 1478.72 266.8C1483.15 278.467 1487.59 289.317 1492.02 299.35C1499.49 278.583 1506.49 256.533 1513.02 233.2C1519.55 209.633 1525.5 186.883 1530.87 164.95H1574.62ZM1624.16 170.9C1632.33 168.567 1642.95 166.35 1656.01 164.25C1669.08 162.15 1683.55 161.1 1699.41 161.1C1714.35 161.1 1726.83 163.2 1736.86 167.4C1746.9 171.367 1754.83 177.083 1760.66 184.55C1766.73 191.783 1770.93 200.65 1773.26 211.15C1775.83 221.417 1777.11 232.733 1777.11 245.1V348H1734.76V251.75C1734.76 241.95 1734.06 233.667 1732.66 226.9C1731.5 219.9 1729.4 214.3 1726.36 210.1C1723.56 205.667 1719.6 202.517 1714.46 200.65C1709.56 198.55 1703.5 197.5 1696.26 197.5C1690.9 197.5 1685.3 197.85 1679.46 198.55C1673.63 199.25 1669.31 199.833 1666.51 200.3V348H1624.16V170.9ZM2021.27 318.25C2034.34 318.25 2044.25 317.55 2051.02 316.15V269.25C2048.69 268.55 2045.3 267.85 2040.87 267.15C2036.44 266.45 2031.54 266.1 2026.17 266.1C2021.5 266.1 2016.72 266.45 2011.82 267.15C2007.15 267.85 2002.84 269.133 1998.87 271C1995.14 272.867 1992.1 275.55 1989.77 279.05C1987.44 282.317 1986.27 286.517 1986.27 291.65C1986.27 301.683 1989.42 308.683 1995.72 312.65C2002.02 316.383 2010.54 318.25 2021.27 318.25ZM2017.77 160.4C2031.77 160.4 2043.55 162.15 2053.12 165.65C2062.69 169.15 2070.27 174.05 2075.87 180.35C2081.7 186.65 2085.79 194.35 2088.12 203.45C2090.69 212.317 2091.97 222.117 2091.97 232.85V343.8C2085.44 345.2 2075.52 346.833 2062.22 348.7C2049.15 350.8 2034.34 351.85 2017.77 351.85C2006.8 351.85 1996.77 350.8 1987.67 348.7C1978.57 346.6 1970.75 343.217 1964.22 338.55C1957.92 333.883 1952.9 327.817 1949.17 320.35C1945.67 312.883 1943.92 303.667 1943.92 292.7C1943.92 282.2 1945.9 273.333 1949.87 266.1C1954.07 258.867 1959.67 253.033 1966.67 248.6C1973.67 243.933 1981.72 240.667 1990.82 238.8C2000.15 236.7 2009.84 235.65 2019.87 235.65C2024.54 235.65 2029.44 236 2034.57 236.7C2039.7 237.167 2045.19 238.1 2051.02 239.5V232.5C2051.02 227.6 2050.44 222.933 2049.27 218.5C2048.1 214.067 2046 210.217 2042.97 206.95C2040.17 203.45 2036.32 200.767 2031.42 198.9C2026.75 197.033 2020.8 196.1 2013.57 196.1C2003.77 196.1 1994.79 196.8 1986.62 198.2C1978.45 199.6 1971.8 201.233 1966.67 203.1L1961.42 168.8C1966.79 166.933 1974.6 165.067 1984.87 163.2C1995.14 161.333 2006.1 160.4 2017.77 160.4ZM2204.03 348H2161.68V164.95H2204.03V348ZM2208.58 111.4C2208.58 119.333 2206.02 125.633 2200.88 130.3C2195.75 134.967 2189.68 137.3 2182.68 137.3C2175.45 137.3 2169.27 134.967 2164.13 130.3C2159 125.633 2156.43 119.333 2156.43 111.4C2156.43 103.233 2159 96.8167 2164.13 92.15C2169.27 87.4833 2175.45 85.15 2182.68 85.15C2189.68 85.15 2195.75 87.4833 2200.88 92.15C2206.02 96.8167 2208.58 103.233 2208.58 111.4Z" fill="#004847"/>
<path d="M1894 324.9C1894 333.067 1891.2 339.717 1885.6 344.85C1880.23 349.983 1873.7 352.55 1866 352.55C1858.07 352.55 1851.42 349.983 1846.05 344.85C1840.68 339.717 1838 333.067 1838 324.9C1838 316.733 1840.68 310.083 1846.05 304.95C1851.42 299.583 1858.07 296.9 1866 296.9C1873.7 296.9 1880.23 299.583 1885.6 304.95C1891.2 310.083 1894 316.733 1894 324.9Z" fill="#FF9F73"/>
<line y1="-2.5" x2="650" y2="-2.5" transform="matrix(1 0 0.0114249 0.999935 1062.88 246.145)" stroke="white" stroke-width="5"/>
<line y1="-2.5" x2="650" y2="-2.5" transform="matrix(1 0 0.0114249 0.999935 1062.88 256.145)" stroke="white" stroke-width="5"/>
</g>
<defs>
<linearGradient id="paint0_linear_8_28" x1="32.6735" y1="262.146" x2="63.0156" y2="89.8987" gradientUnits="userSpaceOnUse">
<stop stop-color="#FCCA90"/>
<stop offset="1" stop-color="#FF9F73"/>
</linearGradient>
<clipPath id="clip0_8_28">
<rect width="2231" height="429" fill="white"/>
</clipPath>
</defs>
</svg>
